<svg xmlns="http://www.w3.org/2000/svg" viewBox="0 0 256 256">
  <defs>
    <radialGradient id="melonBody" cx="40%" cy="28%" r="76%">
      <stop offset="0" stop-color="#9df2ac"/>
      <stop offset="0.55" stop-color="#22c55e"/>
      <stop offset="1" stop-color="#15803d"/>
    </radialGradient>
  </defs>
  <rect width="256" height="256" fill="#0000"/>
  <circle cx="128" cy="128" r="112" fill="url(#melonBody)"/>
  <g fill="none" stroke="#166534" stroke-width="13" opacity="0.52" stroke-linecap="round">
    <path d="M128 20c-17 37-24 76-24 108 0 34 8 73 24 108"/>
    <path d="M88 28c-14 32-21 66-21 100 0 34 7 68 21 101"/>
    <path d="M168 28c14 32 21 66 21 100 0 34-7 68-21 101"/>
  </g>
  <g fill="#1f2937" opacity="0.7">
    <ellipse cx="96" cy="108" rx="6" ry="9"/>
    <ellipse cx="150" cy="94" rx="6" ry="9"/>
    <ellipse cx="167" cy="136" rx="6" ry="9"/>
    <ellipse cx="123" cy="160" rx="6" ry="9"/>
    <ellipse cx="88" cy="146" rx="6" ry="9"/>
  </g>
  <ellipse cx="92" cy="82" rx="30" ry="19" fill="#d1fae5" opacity="0.42"/>
</svg>
